Patient4_TMGait_0pt8_01_left_27_EMG.mot
version=1
nRows=23
nColumns=33
inDegrees=no
endheader
time	1LAddLong	2LGlutMax	3LGlutMed	4LIliopsoas	5LSemiMemb	6LBicFemLong	7LRecFem	8LVastMed	9LVastLat	10LGasMed	11LTibAnt	12lTibPost	13LPeroneusLong	14LSol	15LExtDigLong	16LFlexDigLong	17RAddLong	18RGlutMax	19RGlutMed	20RIliopsoas	21RSemiMemb	22RBicFemLong	23RRecFem	24RVastMed	25RVastLat	26RGasMed	27RTibAnt	28RTibPost	29RPeroneusLong	30RSol	31RExtDigLong	32RFlexDigLong
30.808	0.018311	0.19333	0.009613	0.012665	0.015411	0.050049	0.25955	0.003204	-2.5053	-0.032959	0.058441	-0.010681	-0.015869	-0.086975	0.11536	0.006714	-0.05661	-0.31982	-0.12848	-0.037842	0.045776	0.1268	-0.051575	-0.16419	-0.011292	0.002899	-0.9137	0.16678	0.08316	0.67368	-0.003357	-0.001373
30.809	0.019379	0.16098	-0.00473	0.009155	0.016174	0.0354	0.27832	-0.003662	-0.76736	-0.02121	0.001678	-0.025177	0.003967	-0.013885	0.091553	0.009155	-0.019073	-0.14664	0.298	-0.13351	0.076599	0.13809	-0.009918	-0.12375	0.00473	0.016022	-0.89996	0.055084	0.053253	0.3981	0.010529	0.003967
30.81	0.014648	0.18051	-0.000916	0.001526	0.00946	0.03891	0.25009	-0.00351	1.7578	-0.037231	0.047913	-0.014496	0.037994	-0.023346	0.04364	0.008392	-0.02594	-0.082245	-0.13962	-0.061951	-0.10498	0.090637	0.006256	0.046692	0.052338	0.014648	-0.30609	0.005035	0.22263	-0.017395	-0.003204	-0.000305
30.811	0.012054	0.13748	-0.014496	-0.000153	0.009918	0.047302	0.20218	-0.002441	4.6021	-0.075073	0.034637	-0.026703	0.008087	-0.069275	0.14801	0.009155	-0.004272	-0.1799	-0.026093	0.054474	0.038605	-0.073242	0.10681	0.003204	-0.021667	0.008087	-0.2272	-0.031433	0.11383	-0.56458	0.001068	-0.003204
30.812	0.007324	0.14557	0.018463	0.010529	0.005188	0.035706	0.18448	-0.001068	4.3945	-0.05661	0.005646	-0.017242	0.042572	-0.271	0.009766	0.005493	-0.009155	-0.12512	0.6221	0.093384	-0.13901	0.001984	0.059052	-0.052185	-0.0354	-0.007629	-0.23651	-0.087585	-0.14496	-0.60989	-0.00351	-0.007935
30.813	0.009308	0.12421	-0.032654	0.002899	0.005341	0.04303	0.17029	-0.000763	2.9996	-0.024414	-0.016632	-0.002899	0.062714	-0.28259	0.08316	-0.0177	-0.001831	-0.12238	0.19241	0.11337	-0.50217	0.037537	0.18082	-0.005035	-0.054626	-0.007629	0.29251	0.032501	-0.33768	0.13199	-0.002136	-0.018768
30.814	0.008698	0.1001	-0.11612	-0.004272	0.016022	0.021362	0.15488	0.004883	0.54275	-0.031281	0.065918	-0.018463	0.061035	-0.087128	-0.024109	-0.008392	-0.014191	-0.16312	-0.015106	-0.001678	-0.43381	0.006866	0.21683	-0.018311	-0.042572	-0.011597	0.51041	0.001984	-0.32013	0.345	-0.00351	-0.011597
30.815	0.011902	0.076447	-0.029755	0.005951	0.007935	0.041351	0.13687	0.006866	0.42984	-0.040436	0.05661	-0.015106	0.050049	0.1442	-0.096283	0.003967	0.001221	-0.13092	0.070496	-0.25681	0.32089	-0.13321	0.24597	-0.036926	-0.031891	-0.015106	0.76508	-0.007935	-0.11337	0.25085	-0.00061	-0.020599
30.816	0.005798	0.072784	-0.034637	0.009155	-0.00061	0.035553	0.11353	0.007477	0.64209	-0.039063	0.046692	-0.015259	0.058899	0.045471	-0.18616	-0.001678	0.05127	-0.13641	0.3772	-0.29083	0.20828	-0.16708	0.30106	-0.12497	-0.05127	-0.002899	0.57938	-0.016937	-0.13077	-0.14069	-0.00351	-0.007935
30.817	0.012512	0.07019	-0.024567	0.003357	-0.010834	0.022125	0.091095	0.011139	-0.068207	-0.01709	0.10742	-0.016022	0.08728	-0.14297	-0.19562	-0.00824	0.041809	-0.25223	-0.050507	-0.18158	0.076752	-0.19165	0.23468	-0.12711	-0.041656	-0.006104	0.20783	-0.021973	-0.15717	-0.16647	-0.003662	-0.014648
30.818	0.014191	0.042267	-0.070343	-0.007172	0.008087	0.012512	0.087128	0.011292	-0.26901	-0.028687	0.14038	-0.010223	0.13336	-0.15976	-0.052185	0.011902	-0.00885	-0.3215	-0.32883	0.067139	0.25635	-0.22614	0.16968	0.007629	0.02121	-0.020447	0.18402	-0.018005	-0.20798	0.23468	-0.004578	0.000305
30.819	0.012817	0.07843	-0.027313	0.026703	0.000153	-0.007019	0.090942	0.010986	-0.1889	-0.029297	0.063629	-0.011139	0.087128	-0.018463	0.06958	-0.005341	0.020294	-0.31845	-0.46738	0.2565	0.35355	-0.22736	0.097046	-0.006714	0.087585	-0.002136	0.38055	-0.022736	-0.1712	0.33707	-0.009003	0.000305
30.82	0.010529	0.078888	0.043793	0.004425	-0.008545	-0.010376	0.079498	0.00824	-0.112	-0.012512	-0.11993	-0.012207	0.024719	0.06012	-0.012817	0.011749	0.010223	-0.19318	-0.24948	0.19882	-0.2124	-0.037537	-0.045471	-0.10086	-0.062714	-0.008545	0.30334	-0.025024	0.050812	0.16937	-0.002441	-0.001221
30.821	-0.000458	0.071106	0.045929	-0.001221	-0.007324	-0.028687	0.069885	0.006256	0.025635	-0.012512	-0.16022	-0.010834	0.031433	0.032806	0.14542	0.007935	-0.054321	-0.21866	0.12772	0.24674	-0.55969	0.17731	-0.26459	-0.17822	-0.077667	-0.001526	-0.002136	-0.019836	0.48675	0.040283	-0.002289	-0.002441
30.822	-0.002594	0.02594	0.040741	0.001373	-0.038757	-0.037842	0.071564	-0.001526	-0.069885	-0.038147	-0.063324	-0.003357	0.083923	0.05127	-0.2034	0.016174	-0.06073	-0.32135	0.14099	0.26291	-0.3215	0.078735	-0.15289	-0.057678	0.042572	-0.000458	-0.33325	-0.014648	0.54764	0.067444	-0.009308	0.002289
30.823	0.010986	0.023956	-0.032959	-0.00473	0.01709	-0.03067	0.054321	0.007477	-0.16296	-0.047607	0.053864	-0.006866	0.10803	0.009155	-0.24124	0.00946	-0.050049	-0.22614	0.034485	0.19043	0.19806	-0.084839	0.019989	0.10956	0.2272	0	-0.40405	-0.014038	0.35111	0.007019	-0.000763	0.002747
30.824	0.013123	0.000305	-0.019531	0.005646	0.031738	-0.010223	0.030975	0.009155	-0.1799	-0.063477	0.003967	-0.009766	0.10437	-0.032196	-0.066223	0.015564	-0.060883	-0.11932	-0.014343	0.0914	0.38101	-0.10986	0.081635	0.1358	0.12528	0.005798	-0.31632	-0.012817	0.18173	-0.060577	-0.001831	-0.006256
30.825	0.028381	-0.013733	0.035095	0.004272	0.010834	0.016327	-0.002289	-0.000153	-0.1236	-0.046997	-0.022736	-0.01236	0.041809	-0.06546	-0.1506	0.007782	-0.041046	-0.04364	-0.37186	0.032043	0.23438	-0.011902	0.057831	0.11551	0.056915	0.023956	-0.26947	-0.01297	-0.1062	-0.084229	-0.002747	-0.008698
30.826	0.024109	-0.045013	-0.023651	0.00412	0.020447	0.02594	-0.039063	0.008087	-0.19119	-0.018921	-0.029449	-0.012665	0.016479	0.00885	-0.12054	0.014496	-0.039368	-0.079346	-0.44067	-0.021057	0.028229	0.028229	-0.12466	0.06134	0.06958	0.032654	-0.018311	-0.017242	-0.25375	-0.098572	-0.002136	-0.005798
30.827	0.025024	-0.026398	0.015411	0.005646	0.025787	0.043793	-0.081787	0.010986	-0.22247	-0.026703	-0.031738	-0.006561	0.038757	-0.014648	-0.037689	0.008087	0.001831	-0.005188	0.29114	-0.066071	0.02594	0.027313	-0.12299	0.003815	0.071564	-0.023804	0.09079	-0.026245	-0.10437	-0.088196	-0.00412	0
30.828	0.024109	-0.037384	0.10376	0.007324	0.004578	0.05249	-0.1091	0.002289	-0.32471	-0.02655	0.010223	0.002441	0.056152	-0.18265	0	-0.001984	-0.007935	-0.066833	1.143	-0.11917	-0.12161	0.074921	0.028381	-0.025787	0.04425	-0.076752	-0.019531	-0.018463	-0.17716	-0.017242	-0.000916	-0.005798
30.829	0.023651	-0.050201	-0.085602	0.001221	-0.012817	0.044708	-0.1506	0.005646	-0.21652	-0.039825	-0.057526	-0.002289	0.08667	-0.17212	-0.049438	-0.007019	-0.010071	-0.15884	0.31967	-0.058594	-0.20767	0.23361	0.14542	-0.13641	0.015411	-0.055237	0.001373	-0.010834	-0.43167	0.012207	-0.002136	0.00061
30.83	0.018158	0.01358	-0.15564	0.006409	-0.043335	-0.001831	-0.17456	-0.005188	-0.12421	-0.061798	-0.1236	-0.002136	0.12329	-0.13306	-0.052643	-0.008698	-0.04425	-0.16953	0.25238	0.021057	-0.41718	0.4274	0.38269	-0.082703	0.008087	-0.005798	0.13168	-0.017548	-0.26001	0.07431	0.000916	-0.006104
